<svg width="48" height="48" viewBox="0 0 48 48" fill="none" xmlns="http://www.w3.org/2000/svg">
  <!-- Left building -->
  <rect x="4" y="20" width="10" height="20" rx="1" fill="#0EA5E9"/>
  <rect x="6" y="24" width="2" height="2" fill="white" opacity="0.7"/>
  <rect x="10" y="24" width="2" height="2" fill="white" opacity="0.7"/>
  <rect x="6" y="28" width="2" height="2" fill="white" opacity="0.7"/>
  <rect x="10" y="28" width="2" height="2" fill="white" opacity="0.7"/>
  <rect x="6" y="32" width="2" height="2" fill="white" opacity="0.7"/>
  <rect x="10" y="32" width="2" height="2" fill="white" opacity="0.7"/>
  
  <!-- Center building (main hotel) -->
  <rect x="16" y="8" width="16" height="32" rx="1" fill="#0EA5E9"/>
  <rect x="19" y="12" width="3" height="3" fill="white" opacity="0.8"/>
  <rect x="26" y="12" width="3" height="3" fill="white" opacity="0.8"/>
  <rect x="19" y="17" width="3" height="3" fill="white" opacity="0.8"/>
  <rect x="26" y="17" width="3" height="3" fill="white" opacity="0.8"/>
  <rect x="19" y="22" width="3" height="3" fill="white" opacity="0.8"/>
  <rect x="26" y="22" width="3" height="3" fill="white" opacity="0.8"/>
  <rect x="19" y="27" width="3" height="3" fill="white" opacity="0.8"/>
  <rect x="26" y="27" width="3" height="3" fill="white" opacity="0.8"/>
  <rect x="22" y="34" width="4" height="6" fill="white" opacity="0.9"/>
  
  <!-- Right building -->
  <rect x="34" y="20" width="10" height="20" rx="1" fill="#0EA5E9"/>
  <rect x="36" y="24" width="2" height="2" fill="white" opacity="0.7"/>
  <rect x="40" y="24" width="2" height="2" fill="white" opacity="0.7"/>
  <rect x="36" y="28" width="2" height="2" fill="white" opacity="0.7"/>
  <rect x="40" y="28" width="2" height="2" fill="white" opacity="0.7"/>
  <rect x="36" y="32" width="2" height="2" fill="white" opacity="0.7"/>
  <rect x="40" y="32" width="2" height="2" fill="white" opacity="0.7"/>
</svg>
